<?xml version="1.0" ?><svg height="64" viewBox="0 0 64 64" width="64" xmlns="http://www.w3.org/2000/svg"><title/><g data-name="set-016@doctor-black-male" id="e1e74e32-f71f-4feb-8841-557ed3f122ef"><path d="M53.31,44,41,40.114H23L10.69,44a6,6,0,0,0-4.16,5L6,53.114c7.89,3.5,17.36,5,26,5s18.11-1.49,26-5l-.52-4.17A6,6,0,0,0,53.31,44Z" fill="#e0ebee"/><path d="M58,53.114l-.29-2.34A6.128,6.128,0,0,0,54.14,48l-12.79-3.89H22.65L9.87,48a6.157,6.157,0,0,0-3.57,2.76L6,53.114c7.89,3.5,17.36,5,26,5S50.11,56.624,58,53.114Z" fill="#cedde1"/><path d="M27.94,58c-.58-1.08-4.94-9.48-4.94-17.89h0l-3.83,1.2L16,47.694l5,3-2.24,6.24A73.927,73.927,0,0,0,27.94,58Z" fill="#eaf2f3"/><polyline fill="none" points="19.17 41.314 16 47.694 21 50.694 18.77 56.934" stroke="#c5d5d8" stroke-linejoin="round"/><path d="M36.06,58c.58-1.08,4.94-9.48,4.94-17.89h0l3.83,1.2L48,47.694l-5,3,2.24,6.24A73.927,73.927,0,0,1,36.06,58Z" fill="#eaf2f3"/><polyline fill="none" points="44.83 41.314 48 47.694 43 50.694 45.23 56.934" stroke="#c5d5d8" stroke-linejoin="round"/><path d="M36,58.114s5-9,5-18H23c0,9,5,18,5,18" fill="#6d797d" stroke="#343433" stroke-linejoin="round" stroke-width="1.5"/><polygon fill="#aa8064" points="37.97 43.124 31.97 48.114 25.97 43.124 25.97 36.124 37.97 36.124 37.97 43.124"/><path d="M32,58.114c1.21,0,2.44,0,3.67-.1-1-3.27-2.67-8.9-2.67-8.9H31L28.33,58C29.56,58.074,30.79,58.114,32,58.114Z" fill="#4994c4" stroke="#343433" stroke-linejoin="round" stroke-width="1.5"/><path d="M35.67,58c-1-3.27-2.67-8.9-2.67-8.9H31L28.33,58" fill="none" stroke="#343433" stroke-miterlimit="10" stroke-width="1.5"/><path d="M32.29,49.114l.21,3a.5.5,0,1,1-1,.06V52.1l.21-3a.29.29,0,0,1,.58,0Z" fill="#343433"/><polygon fill="#4994c4" points="32 44.114 29.33 47.444 31 49.114 33 49.114 34.58 47.334 32 44.114" stroke="#343433" stroke-linejoin="round" stroke-width="1.5"/><path d="M25,37.114s1.53,3.51,7,7l-4,5c-3-3-5-7-5-9Z" fill="#6d797d" stroke="#343433" stroke-linejoin="round" stroke-width="1.5"/><path d="M39,37.114s-1.53,3.51-7,7l4,5c3-3,5-7,5-9Z" fill="#6d797d" stroke="#343433" stroke-linejoin="round" stroke-width="1.5"/><path d="M41,40.114,53.31,44a6,6,0,0,1,4.16,5l.53,4.11c-7.89,3.5-17.36,5-26,5s-18.11-1.49-26-5l.52-4.17a6,6,0,0,1,4.16-5L23,40.114" fill="none" stroke="#343433" stroke-linejoin="round" stroke-width="1.5"/><path d="M45.22,52.114v-11a3.83,3.83,0,0,0-3.65-4H39.22" fill="none" stroke="#333" stroke-linejoin="round" stroke-width="1.5"/><path d="M18,46.614v-5.49a3.83,3.83,0,0,1,3.65-4H25" fill="none" stroke="#333" stroke-linejoin="round" stroke-width="1.5"/><path d="M48.72,55.614a3.5,3.5,0,1,1-3.5-3.5A3.5,3.5,0,0,1,48.72,55.614Z" fill="#e0ebee"/><circle cx="45.22" cy="55.614" fill="#333" r="1"/><path d="M48.72,55.614a3.5,3.5,0,1,1-3.5-3.5A3.5,3.5,0,0,1,48.72,55.614Z" fill="none" stroke="#333" stroke-linejoin="round" stroke-width="1.5"/><circle cx="16" cy="58.114" fill="#333" r="1"/><circle cx="20" cy="58.114" fill="#333" r="1"/><path d="M16,58.114c-2,0-3-.83-3-2,0-3,5-10,5-10s5,7,5,10c0,1.17-1,2-3,2" fill="none" stroke="#333" stroke-linejoin="round" stroke-width="1.5"/><path d="M43.42,21.232V19c0-6-2.09-12.08-11-12.08s-11,6.13-11,12.08v2.2c-.09,0-3.29,0-2.2,5.49A4.272,4.272,0,0,0,22.55,30c0,3.9,1.1,4.39,4.81,8.21,1.43,1.82,3.17,1.67,5.07,1.67s3.65.15,5.07-1.67c3.71-3.82,4.81-4.31,4.81-8.21a4.271,4.271,0,0,0,3.29-3.29C46.71,21.232,43.51,21.192,43.42,21.232Z" fill="#a68064"/><path d="M45.61,26.722c1.1-5.49-2.11-5.52-2.2-5.49V19c0-6-2.09-12.08-11-12.08a15.3,15.3,0,0,0-2.92.26v12a3.9,3.9,0,0,1-1.27,2.88.451.451,0,0,0,.2.77c1.5.43,2.3.71,3.23.47.31-.08.86.27.86.59v1.57a1.69,1.69,0,0,0,.64,1.4,1.1,1.1,0,0,1-.64,2c-.81,0-1.1-.55-2.2-.55-.65,0-.55.85-.57.82a2.366,2.366,0,0,1,1.1.29,3.379,3.379,0,0,0,1.65.43v3.31A1.911,1.911,0,0,0,33.76,35a1.549,1.549,0,0,1,.94,1.63c0,3-5.43-.3-5.43,3h0a9.9,9.9,0,0,0,3.16.29c1.9,0,3.65.15,5.07-1.67,3.71-3.82,4.81-4.31,4.81-8.21A4.291,4.291,0,0,0,45.61,26.722Z" fill="#9b775c"/><path d="M41.69,22.362a22.3,22.3,0,0,0-4.47-.26,14.451,14.451,0,0,0-4.18.71h-.07a2.407,2.407,0,0,0-1,0l-.09-.05a14.114,14.114,0,0,0-4.17-.71,21.606,21.606,0,0,0-4.48.26.509.509,0,0,0-.42.5v.67A.511.511,0,0,0,23,24l.27.18a9.25,9.25,0,0,0,.36,2.08.568.568,0,0,0,.23.3,9.171,9.171,0,0,0,3.07.78,8.3,8.3,0,0,0,1.39.12,8.553,8.553,0,0,0,2.3-.32.493.493,0,0,0,.31-.27s.24-.5.57-1.4c.27-.72.43-1.22.54-1.54a1.486,1.486,0,0,1,.81,0c.1.32.27.83.54,1.56.33.89.56,1.37.57,1.39a.524.524,0,0,0,.31.27,8.243,8.243,0,0,0,2.31.32,8.983,8.983,0,0,0,1.36-.11,9.309,9.309,0,0,0,3.06-.84.473.473,0,0,0,.23-.3,9.25,9.25,0,0,0,.36-2.08l.28-.19a.5.5,0,0,0,.22-.42v-.67A.51.51,0,0,0,41.69,22.362Z" fill="#957058"/><path d="M24.07,28.912a3.67,3.67,0,0,1-1.52-3.29v-2.69a2.441,2.441,0,0,0-1.46-1.65c-.83.17-2.72,1-1.83,5.45A4.271,4.271,0,0,0,22.55,30c0,3.3.8,4.17,3.29,6.68v-3.36A5.218,5.218,0,0,0,24.07,28.912Z" fill="#9b775c"/><path d="M43.44,21.222a2.179,2.179,0,0,0-1.12,1.87v2.53a3.642,3.642,0,0,1-1.52,3.29A5.239,5.239,0,0,0,39,33.3v3.38c2.5-2.51,3.29-3.38,3.29-6.68a4.271,4.271,0,0,0,3.29-3.29C46.68,21.4,43.72,21.2,43.44,21.222Z" fill="#957058"/><path d="M43.42,21.232V19c0-6-2.09-12.08-11-12.08s-11,6.13-11,12.08v2.2c-.09,0-3.29,0-2.2,5.49A4.272,4.272,0,0,0,22.55,30c0,3.9,1.1,4.39,4.81,8.21,1.43,1.82,3.17,1.67,5.07,1.67s3.65.15,5.07-1.67c3.71-3.82,4.81-4.31,4.81-8.21a4.271,4.271,0,0,0,3.29-3.29C46.71,21.232,43.51,21.192,43.42,21.232Z" fill="none" stroke="#333" stroke-linejoin="round" stroke-width="1.5"/><line fill="none" stroke="#977059" stroke-linecap="round" stroke-miterlimit="10" stroke-width="0.75" x1="32.44" x2="32.44" y1="29.882" y2="30.882"/><line fill="none" stroke="#977059" stroke-linecap="round" stroke-miterlimit="10" stroke-width="0.75" x1="31.44" x2="33.44" y1="34.942" y2="34.942"/><line fill="none" stroke="#977059" stroke-linecap="round" stroke-miterlimit="10" stroke-width="0.75" x1="32.31" x2="32.56" y1="37.652" y2="37.652"/><path d="M33.8,31.732a2.812,2.812,0,0,0-1.18.13.618.618,0,0,1-.42,0,2.855,2.855,0,0,0-1.2-.13c-.67.1-.74.52-2.09,1.25l1.19.73a2.3,2.3,0,0,0,1.27.41h2.07a2.217,2.217,0,0,0,1.27-.41L36,33C34.6,32.282,34.47,31.832,33.8,31.732Z" fill="#957058"/><path d="M36,33c-1,0-1.26-.39-2.24-.39a6.6,6.6,0,0,0-1.29.17,7.473,7.473,0,0,0-1.29-.17c-.94,0-1.15.36-2.21.36" fill="none" stroke="#674848" stroke-linecap="round" stroke-miterlimit="10" stroke-width="0.75"/><path d="M29.71,29a2.658,2.658,0,0,1,1.31.34h0a2.751,2.751,0,0,0,2.61,0h0A2.743,2.743,0,0,1,34.94,29" fill="none" stroke="#674848" stroke-linecap="round" stroke-miterlimit="10" stroke-width="0.75"/><path d="M24.82,21.352a5.946,5.946,0,0,1,1.45-.55,5.549,5.549,0,0,1,1.58-.09,9.7,9.7,0,0,1,2.82,1h0a.23.23,0,0,1,.12.3.242.242,0,0,1-.23.14,12.589,12.589,0,0,1-1.48-.26c-.47-.09-.93-.14-1.37-.21a7.27,7.27,0,0,0-2.75.06h0a.24.24,0,0,1-.27-.18A.229.229,0,0,1,24.82,21.352Z" fill="#333"/><path d="M39.76,21.772a7.282,7.282,0,0,0-2.76-.06c-.45.07-.9.12-1.37.21a12.589,12.589,0,0,1-1.48.26.221.221,0,0,1-.239-.2.134.134,0,0,1,0-.02.23.23,0,0,1,.14-.23h0a9.7,9.7,0,0,1,2.82-1,6.388,6.388,0,0,1,1.58.09,5.137,5.137,0,0,1,1.45.55.229.229,0,0,1,.09.31.241.241,0,0,1-.26.12Z" fill="#333"/><path d="M42,24.742c0-3,1.69-3.38,1.69-3.38.43-3,.89-4.88.17-7.43-1.25-4.37-5.27-7.19-11.44-7.19s-9.83,2.82-11.08,7.19c-.7,2.46-.31,4.15.17,7.43,0,0,1.5.35,1.5,3.38,0-2.6-.09-3.9.81-5a1,1,0,0,0,.19-.6v-2.25a2.1,2.1,0,0,1,1.39-2,22.113,22.113,0,0,1,7.11-1.36,22.113,22.113,0,0,1,7.11,1.36,2.1,2.1,0,0,1,1.39,2V19.1a1,1,0,0,0,.19.6C42.21,21.292,42,22.432,42,24.742Z" fill="#333"/><path d="M38.53,7.912a14.852,14.852,0,0,0-6.09-1.17c-6.17,0-9.83,2.82-11.08,7.19-.7,2.46-.31,4.15.17,7.43,0,0,1.2.29,1.45,2.51v-5C23,7,34.53,7.232,38.53,7.912Z" fill="#444"/><path d="M22.68,24.742c0-.75-.07-1.49-.07-2.26A5.775,5.775,0,0,1,23,20.1a4.837,4.837,0,0,1,.31-.56l.09-.13v-.06a.472.472,0,0,0,0-.13.627.627,0,0,0,0-.15v-1.96a2.91,2.91,0,0,1,.21-1.35,2.733,2.733,0,0,1,.89-1.13,3.259,3.259,0,0,1,.64-.35l.54-.2a22.311,22.311,0,0,1,6.8-1.31,20.11,20.11,0,0,1,4.6.61c.75.19,1.49.42,2.21.68l.54.2a2.621,2.621,0,0,1,.64.35,2.743,2.743,0,0,1,.9,1.13,2.91,2.91,0,0,1,.21,1.35v2.12c0,.08.31.54.45.9a5.478,5.478,0,0,1,.45,2.37c0,.77-.07,1.51-.09,2.26a.35.35,0,0,1-.69,0h0c-.08-1.5.06-3-.57-4.2a4.376,4.376,0,0,0-.25-.43,1.944,1.944,0,0,1-.32-.65,2.227,2.227,0,0,1,0-.4V17.1a1.684,1.684,0,0,0-.16-.83,1.4,1.4,0,0,0-.51-.57,1.336,1.336,0,0,0-.35-.16l-.52-.17a21.386,21.386,0,0,0-2.1-.55,24.932,24.932,0,0,0-4.27-.51,23.876,23.876,0,0,0-4.28.49,21.437,21.437,0,0,0-2.1.56l-.52.17a1.383,1.383,0,0,0-.35.17,1.584,1.584,0,0,0-.51.58,1.725,1.725,0,0,0-.16.84v1.96a1.544,1.544,0,0,1-.05.4,1.327,1.327,0,0,1-.16.39,1.308,1.308,0,0,1-.12.17l-.08.1a2.354,2.354,0,0,0-.25.4,5.091,5.091,0,0,0-.45,2c-.05.73-.06,1.48-.09,2.23a.341.341,0,0,1-.35.33h0a.371.371,0,0,1-.477-.217A.364.364,0,0,1,22.68,24.742Z" fill="#333"/><path d="M22.68,24.742a5.328,5.328,0,0,0-.31-1.8A2.518,2.518,0,0,0,22,22.2a1.3,1.3,0,0,0-.54-.41.452.452,0,0,1-.33-.36,25.161,25.161,0,0,1-.62-5.55,10.769,10.769,0,0,1,1.89-5.41A10,10,0,0,1,27,7a15.18,15.18,0,0,1,5.64-1,15.574,15.574,0,0,1,5.63,1,10.511,10.511,0,0,1,4.64,3.46,10.124,10.124,0,0,1,1.92,5.43,26.984,26.984,0,0,1-.62,5.55.471.471,0,0,1-.35.38h0a1.535,1.535,0,0,0-.62.39,2.55,2.55,0,0,0-.47.72,4.987,4.987,0,0,0-.36,1.83.345.345,0,0,1-.69,0,5.648,5.648,0,0,1,.28-2.14,2.918,2.918,0,0,1,.58-1,2.218,2.218,0,0,1,1.06-.7l-.35.38a25.858,25.858,0,0,0,.38-5.3,8.748,8.748,0,0,0-6-7.59,15.39,15.39,0,0,0-5.12-.87,15.119,15.119,0,0,0-5.13.76,8.733,8.733,0,0,0-4.09,2.93A9.629,9.629,0,0,0,21.53,16a30.02,30.02,0,0,0,.47,5.31L21.62,21a1.994,1.994,0,0,1,1,.75,3.158,3.158,0,0,1,.49,1,6.346,6.346,0,0,1,.25,2.06.35.35,0,0,1-.35.34.361.361,0,0,1-.33-.35Z" fill="#333"/><path d="M40.91,22.4a19.238,19.238,0,0,0-7.87.51,28.959,28.959,0,0,0,1.21,3.3,10.817,10.817,0,0,0,6.36-.52A9.158,9.158,0,0,0,40.91,22.4Z" fill="#bf9882"/><path d="M34.25,26.212a8.106,8.106,0,0,0,1.08.22,21.127,21.127,0,0,1-1.2-2.91,23.836,23.836,0,0,1,6.81-.12v-1a19.238,19.238,0,0,0-7.87.51A29.715,29.715,0,0,0,34.25,26.212Z" fill="#a68064"/><path d="M23.6,22.412a8.867,8.867,0,0,0,.32,3.28,10.755,10.755,0,0,0,6.37.52,28.084,28.084,0,0,0,1.21-3.3A19.157,19.157,0,0,0,23.6,22.412Z" fill="#bf9882"/><path d="M31,23.722l.28-.86a19.19,19.19,0,0,0-7.71-.45,8.867,8.867,0,0,0,.32,3.28,5.211,5.211,0,0,0,1,.36,9.823,9.823,0,0,1-.54-2.9A18.241,18.241,0,0,1,31,23.722Z" fill="#a68064"/><circle cx="27.91" cy="24.542" fill="#6c7881" r="0.65"/><circle cx="36.87" cy="24.542" fill="#6c7881" r="0.65"/><path d="M23.6,22.412a8.867,8.867,0,0,0,.32,3.28,10.755,10.755,0,0,0,6.37.52,28.084,28.084,0,0,0,1.21-3.3,19.686,19.686,0,0,0-8.73-.38v.68l.8.2" fill="none" stroke="#333" stroke-linejoin="round" stroke-width="1.023"/><path d="M31.49,22.922a.909.909,0,0,1,.77-.3c.61,0,.77.29.77.29" fill="none" stroke="#333" stroke-linejoin="round" stroke-width="1.023"/><path d="M40.94,22.412a8.867,8.867,0,0,1-.32,3.28,10.755,10.755,0,0,1-6.37.52,28.174,28.174,0,0,1-1.25-3.3,19.686,19.686,0,0,1,8.73-.38v.68l-.8.2" fill="none" stroke="#333" stroke-linejoin="round" stroke-width="1.023"/></g></svg>